HIERARCHY
ROOT joint_Root
{
	OFFSET 0.0 0.0 0.0
	CHANNELS 6 Xposition Yposition Zposition Zrotation Xrotation Yrotation 
	JOINT Hips
	{
		OFFSET 4.5925 91.4895 -427.239
		CHANNELS 6 Xposition Yposition Zposition Zrotation Xrotation Yrotation 
		JOINT Spine
		{
			OFFSET 15.7357 0.0 0.0
			CHANNELS 6 Xposition Yposition Zposition Zrotation Xrotation Yrotation 
			JOINT Chest
			{
				OFFSET 8.98455 -0.406207 0.0
				CHANNELS 6 Xposition Yposition Zposition Zrotation Xrotation Yrotation 
				JOINT Neck
				{
					OFFSET 16.3773 0.0 0.0
					CHANNELS 6 Xposition Yposition Zposition Zrotation Xrotation Yrotation 
					JOINT Head
					{
						OFFSET 6.45672 0.0 0.0
						CHANNELS 6 Xposition Yposition Zposition Zrotation Xrotation Yrotation 
						End Site
						{
							OFFSET 0.0 0.0 0.0
						}
					}
				}
				JOINT Shoulder_L
				{
					OFFSET 12.9942 -0.242716 4.98039
					CHANNELS 6 Xposition Yposition Zposition Zrotation Xrotation Yrotation 
					JOINT UpperArm_L
					{
						OFFSET 5.34809 0.0 0.0
						CHANNELS 6 Xposition Yposition Zposition Zrotation Xrotation Yrotation 
						JOINT LowerArm_L
						{
							OFFSET 24.3286 1.87007e-05 0.0
							CHANNELS 6 Xposition Yposition Zposition Zrotation Xrotation Yrotation 
							JOINT Hand_L
							{
								OFFSET 22.2916 0.0 0.0
								CHANNELS 6 Xposition Yposition Zposition Zrotation Xrotation Yrotation 
								End Site
								{
									OFFSET 0.0 0.0 0.0
								}
							}
						}
					}
				}
				JOINT Shoulder_R
				{
					OFFSET 12.9945 -0.242716 -4.98039
					CHANNELS 6 Xposition Yposition Zposition Zrotation Xrotation Yrotation 
					JOINT UpperArm_R
					{
						OFFSET -5.34813 0.0 0.0
						CHANNELS 6 Xposition Yposition Zposition Zrotation Xrotation Yrotation 
						JOINT LowerArm_R
						{
							OFFSET -24.3289 0.000322201 0.0
							CHANNELS 6 Xposition Yposition Zposition Zrotation Xrotation Yrotation 
							JOINT Hand_R
							{
								OFFSET -22.2915 -0.000108084 0.0
								CHANNELS 6 Xposition Yposition Zposition Zrotation Xrotation Yrotation 
								End Site
								{
									OFFSET 0.0 0.0 0.0
								}
							}
						}
					}
				}
			}
		}
		JOINT UpperLeg_L
		{
			OFFSET -2.19248 -6.46944 0.0
			CHANNELS 6 Xposition Yposition Zposition Zrotation Xrotation Yrotation 
			JOINT LowerLeg_L
			{
				OFFSET 39.0811 0.0 -1.23785e-05
				CHANNELS 6 Xposition Yposition Zposition Zrotation Xrotation Yrotation 
				JOINT Foot_L
				{
					OFFSET 40.9854 0.0 -1.26872e-05
					CHANNELS 6 Xposition Yposition Zposition Zrotation Xrotation Yrotation 
					JOINT Toes_L
					{
						OFFSET 11.7543 0.0 0.0
						CHANNELS 6 Xposition Yposition Zposition Zrotation Xrotation Yrotation 
						End Site
						{
							OFFSET 0.0 0.0 0.0
						}
					}
				}
			}
		}
		JOINT UpperLeg_R
		{
			OFFSET -2.19251 6.46944 0.0
			CHANNELS 6 Xposition Yposition Zposition Zrotation Xrotation Yrotation 
			JOINT LowerLeg_R
			{
				OFFSET -39.0811 -0.00228153 -0.0401928
				CHANNELS 6 Xposition Yposition Zposition Zrotation Xrotation Yrotation 
				JOINT Foot_R
				{
					OFFSET -40.9854 0.0 0.0
					CHANNELS 6 Xposition Yposition Zposition Zrotation Xrotation Yrotation 
					JOINT Toes_R
					{
						OFFSET -11.7543 0.0 0.0
						CHANNELS 6 Xposition Yposition Zposition Zrotation Xrotation Yrotation 
						End Site
						{
							OFFSET 0.0 0.0 0.0
						}
					}
				}
			}
		}
	}
}
MOTION
Frames:	5
Frame Time:	0.0333333
0.000000 0.000000 0.000000 0.000000 0.000000 -0.000000 -2.346060 90.710500 -4.287100 89.030100 -1.033750 13.217900 15.735700 0.000005 -0.000001 89.396100 75.586500 -89.279100 8.984550 -0.406207 -0.000000 21.059900 -0.282865 0.287352 16.377300 -0.000001 -0.000001 11.450300 -3.861640 0.174338 6.456720 -0.000001 -0.000000 -9.801750 -3.833590 2.360830 12.994200 -0.242716 4.980390 -90.598700 2.556430 -76.815000 5.348090 -0.000007 -0.000001 -74.342400 -16.590300 -75.971800 24.328600 0.000019 0.000005 39.129100 -5.989840 -97.309600 22.291600 -0.000001 0.000005 15.518600 5.193640 2.878120 12.994500 -0.242716 -4.980390 88.966600 10.036600 -84.090600 -5.348130 -0.000001 -0.000004 -53.915400 34.493900 -25.723500 -24.328900 0.000322 -0.000009 3.050790 6.345200 -25.753200 -22.291500 -0.000108 -0.000004 19.180400 5.426280 -3.811830 -2.192480 -6.469440 -0.000000 -171.974000 -13.631000 -1.122870 39.081100 -0.000007 -0.000012 -0.175686 0.276624 32.420100 40.985400 -0.000006 -0.000013 -0.937202 5.925370 -67.336400 11.754300 -0.000000 0.000003 -0.000178 -0.001682 -16.641200 -2.192510 6.469440 -0.000001 173.847000 24.864900 -178.747000 -39.081100 -0.002282 -0.040193 -0.191341 0.315851 31.643200 -40.985400 0.000008 0.000006 5.082950 14.743700 -69.178100 -11.754300 -0.000006 -0.000006 -0.002335 -0.032834 -17.908300
0.000000 0.000000 0.000000 0.000000 0.000000 -0.000000 -2.344920 90.704400 -4.263290 89.016600 -1.058210 13.204100 15.735700 0.000005 -0.000001 89.430400 75.582000 -89.309500 8.984550 -0.406207 -0.000000 21.069000 -0.265616 0.292166 16.377300 -0.000001 -0.000001 11.523900 -3.859130 0.146181 6.456720 -0.000001 -0.000000 -9.800410 -3.871900 2.387150 12.994200 -0.242716 4.980390 -90.601300 2.567950 -76.816600 5.348090 -0.000007 -0.000001 -74.303500 -16.574600 -76.030300 24.328600 0.000019 0.000005 39.070500 -6.023780 -97.365600 22.291600 -0.000001 0.000005 15.535100 5.190880 2.946820 12.994500 -0.242716 -4.980390 88.966500 10.033400 -84.088500 -5.348130 -0.000001 -0.000004 -53.987100 34.467000 -25.728600 -24.328900 0.000322 -0.000009 3.089230 6.431540 -25.732600 -22.291500 -0.000108 -0.000004 19.118400 5.427450 -3.851790 -2.192480 -6.469440 -0.000000 -171.961000 -13.655400 -1.142040 39.081100 -0.000007 -0.000012 -0.174608 0.274504 32.460200 40.985400 -0.000006 -0.000013 -0.929115 5.931300 -67.369200 11.754300 -0.000000 0.000003 -0.000179 -0.001687 -16.641400 -2.192510 6.469440 -0.000001 173.848000 24.884700 -178.761000 -39.081100 -0.002282 -0.040193 -0.193853 0.319648 31.665600 -40.985400 0.000008 0.000006 5.091080 14.784500 -69.198700 -11.754300 -0.000006 -0.000006 -0.002550 -0.035399 -18.012600
0.000000 0.000000 0.000000 0.000000 0.000000 -0.000000 -2.329200 90.706100 -4.246480 89.025600 -1.077870 13.170200 15.735700 0.000005 -0.000001 89.448100 75.577100 -89.331200 8.984550 -0.406207 -0.000000 21.078800 -0.257500 0.282542 16.377300 -0.000001 -0.000001 11.539000 -3.882440 0.143503 6.456720 -0.000001 -0.000000 -9.778010 -3.885430 2.403190 12.994200 -0.242716 4.980390 -90.602500 2.564550 -76.775100 5.348090 -0.000007 -0.000001 -74.281600 -16.489500 -76.105200 24.328600 0.000019 0.000005 38.986800 -6.042570 -97.410100 22.291600 -0.000001 0.000005 15.567800 5.192950 2.895520 12.994500 -0.242716 -4.980390 88.969100 10.022300 -84.096400 -5.348130 -0.000001 -0.000004 -53.995700 34.504500 -25.761900 -24.328900 0.000322 -0.000009 3.081870 6.403040 -25.778200 -22.291500 -0.000108 -0.000004 19.168400 5.425490 -3.784900 -2.192480 -6.469440 -0.000000 -171.982000 -13.664900 -1.154950 39.081100 -0.000007 -0.000012 -0.176095 0.276973 32.447800 40.985400 -0.000006 -0.000013 -0.923335 5.928360 -67.379000 11.754300 -0.000000 0.000003 -0.000175 -0.001651 -16.640100 -2.192510 6.469440 -0.000001 173.846000 24.883200 -178.790000 -39.081100 -0.002282 -0.040193 -0.191901 0.316526 31.662100 -40.985400 0.000008 0.000006 5.086430 14.800400 -69.200400 -11.754300 -0.000006 -0.000006 -0.002439 -0.034079 -17.958900
0.000000 0.000000 0.000000 0.000000 0.000000 -0.000000 -2.320980 90.713500 -4.225820 89.009100 -1.082100 13.189100 15.735700 0.000005 -0.000001 89.465000 75.561300 -89.344000 8.984550 -0.406207 -0.000000 21.110600 -0.248980 0.289180 16.377300 -0.000001 -0.000001 11.572700 -3.914620 0.120456 6.456720 -0.000001 -0.000000 -9.721880 -3.959250 2.454050 12.994200 -0.242716 4.980390 -90.605500 2.572340 -76.749900 5.348090 -0.000007 -0.000001 -74.217400 -16.392900 -76.140100 24.328600 0.000019 0.000005 39.000200 -6.090380 -97.464300 22.291600 -0.000001 0.000005 15.522900 5.194570 2.855060 12.994500 -0.242716 -4.980390 88.969200 10.030100 -84.101900 -5.348130 -0.000001 -0.000004 -53.995700 34.520700 -25.768700 -24.328900 0.000322 -0.000009 3.069240 6.366220 -25.814800 -22.291500 -0.000108 -0.000004 19.201100 5.426090 -3.805260 -2.192480 -6.469440 -0.000000 -171.967000 -13.639200 -1.094820 39.081100 -0.000007 -0.000012 -0.174621 0.274999 32.415300 40.985400 -0.000006 -0.000013 -0.928562 5.908480 -67.388900 11.754300 -0.000000 0.000003 -0.000174 -0.001646 -16.639900 -2.192510 6.469440 -0.000001 173.839000 24.862400 -178.720000 -39.081100 -0.002282 -0.040193 -0.192955 0.318931 31.606100 -40.985400 0.000008 0.000006 5.067660 14.808900 -69.188200 -11.754300 -0.000006 -0.000006 -0.002357 -0.033102 -17.919200
0.000000 0.000000 0.000000 0.000000 0.000000 -0.000000 -2.307810 90.707800 -4.206520 89.019500 -1.074760 13.135400 15.735700 0.000005 -0.000001 89.471300 75.566300 -89.357800 8.984550 -0.406207 -0.000000 21.100600 -0.246650 0.273759 16.377300 -0.000001 -0.000001 11.633100 -3.964970 0.137439 6.456720 -0.000001 -0.000000 -9.623410 -4.013880 2.449060 12.994200 -0.242716 4.980390 -90.610100 2.593480 -76.756900 5.348090 -0.000007 -0.000001 -74.147400 -16.313600 -76.215900 24.328600 0.000019 0.000005 39.024700 -6.125730 -97.500500 22.291600 -0.000001 0.000005 15.505000 5.194870 2.847490 12.994500 -0.242716 -4.980390 88.967600 10.039800 -84.098500 -5.348130 -0.000001 -0.000004 -53.952400 34.566700 -25.844000 -24.328900 0.000322 -0.000009 3.067790 6.365750 -25.805900 -22.291500 -0.000108 -0.000004 19.205100 5.425310 -3.779020 -2.192480 -6.469440 -0.000000 -172.001000 -13.653200 -1.162620 39.081100 -0.000007 -0.000012 -0.174492 0.274478 32.445400 40.985400 -0.000006 -0.000013 -0.917648 5.897810 -67.408300 11.754300 -0.000000 0.000003 -0.000166 -0.001583 -16.637600 -2.192510 6.469440 -0.000001 173.837000 24.858200 -178.787000 -39.081100 -0.002282 -0.040193 -0.196949 0.324968 31.641900 -40.985400 0.000008 0.000006 5.056400 14.801600 -69.209900 -11.754300 -0.000006 -0.000006 -0.002592 -0.035897 -18.032900
